<svg xmlns="http://www.w3.org/2000/svg" xmlns:xlink="http://www.w3.org/1999/xlink" viewBox="0 0 391.68 283.51" height="300" width="300"><defs><style>.cls-1{fill:#d9616f;}.cls-17,.cls-2,.cls-3{opacity:0.32;}.cls-17,.cls-2,.cls-3,.cls-5,.cls-8{isolation:isolate;}.cls-2{fill:url(#linear-gradient);}.cls-3{fill:url(#linear-gradient-2);}.cls-4{fill:#2e3207;}.cls-5,.cls-6,.cls-8{fill:#247efd;}.cls-5{opacity:0.1;}.cls-7{fill:#6c8fc1;}.cls-8{opacity:0.3;}.cls-9{fill:#fff;}.cls-10{fill:#4e62d4;}.cls-11{fill:#f04900;}.cls-12{fill:#ffc881;}.cls-13{fill:#35406e;}.cls-14{fill:#42a200;}.cls-15{fill:#ffdf58;}.cls-16{fill:#653200;}.cls-17{fill:url(#linear-gradient-3);}.cls-18{fill:#003b94;}.cls-19{fill:#007f68;}</style><linearGradient id="linear-gradient" x1="209.1" y1="61.45" x2="252.31" y2="87.32" gradientTransform="matrix(1.01, 0, 0, -1.01, 7.37, 307.79)" gradientUnits="userSpaceOnUse"><stop offset="0" stop-color="#aa4200" stop-opacity="0"/><stop offset="0.98" stop-color="#aa003d"/></linearGradient><linearGradient id="linear-gradient-2" x1="128.02" y1="96.44" x2="159.45" y2="123.14" xlink:href="#linear-gradient"/><linearGradient id="linear-gradient-3" x1="287.73" y1="84.22" x2="320.77" y2="130.78" xlink:href="#linear-gradient"/></defs><title>abt</title><g id="Layer_2" data-name="Layer 2"><g id="Layer_1-2" data-name="Layer 1"><path class="cls-1" d="M190,280.41,7.62,172.58C1.81,169.32-3.17,164,2.49,160.46L185.57,54.9c2.75-1.71,6.92-2.82,9.71-1.2L386.77,164.88c5.81,3.37,6.85,12.79,1,16.17L214.11,280.22A24.26,24.26,0,0,1,190,280.41Z"/><path class="cls-2" d="M278.72,221.18l-20.82-7.36-61.84,30.5,24.23,15.89S263.91,229.66,278.72,221.18Z"/><path class="cls-3" d="M195.84,187.64l-27.56-19.16-54.66,34.08,31.13,19.09S181,196.1,195.84,187.64Z"/><path class="cls-4" d="M107.92,27.06a5.78,5.78,0,0,0-8.65-5L54.13,48a6.38,6.38,0,0,0-3.22,5.58v80.36a5.77,5.77,0,0,0,8.6,5.07l43.73-24.65a9.2,9.2,0,0,0,4.68-8Z"/><path class="cls-5" d="M107.92,27.06a5.78,5.78,0,0,0-8.65-5L54.13,48a6.38,6.38,0,0,0-3.22,5.58v80.36a5.77,5.77,0,0,0,8.6,5.07l43.73-24.65a9.2,9.2,0,0,0,4.68-8Z"/><path class="cls-6" d="M110.66,28.46a5.78,5.78,0,0,0-8.65-5L56.88,49.33a6.38,6.38,0,0,0-3.22,5.58v80.36a5.77,5.77,0,0,0,8.6,5.07L106,115.69a9.2,9.2,0,0,0,4.68-8Z"/><path class="cls-7" d="M110.66,191.7l-5.16-2.12,2.11-2Z"/><path class="cls-4" d="M103.35,92.16l-.15,93.65a4.23,4.23,0,0,0,4.23,4.24,4.29,4.29,0,0,0,2.07-.54l137.91-77.14a9.14,9.14,0,0,0,4.7-7.78l2.53-98.86A5.6,5.6,0,0,0,249.19,0a5.68,5.68,0,0,0-3,.79L108.78,82.63A11.18,11.18,0,0,0,103.35,92.16Z"/><path class="cls-5" d="M103.35,92.16l-.15,93.65a4.23,4.23,0,0,0,4.23,4.24,4.29,4.29,0,0,0,2.07-.54l137.91-77.14a9.14,9.14,0,0,0,4.7-7.78l2.53-98.86A5.6,5.6,0,0,0,249.19,0a5.68,5.68,0,0,0-3,.79L108.78,82.63A11.18,11.18,0,0,0,103.35,92.16Z"/><path class="cls-4" d="M209.09,123.61l-15,22s-2,6,4.89,10.7,24.63,13.89,24.63,13.89l-35.24,22-27-15.36s-12-4.45,1.58-29.3"/><path class="cls-4" d="M209.09,123.61l-15,22s-2,6,4.89,10.7,24.63,13.89,24.63,13.89l-35.24,22-27-15.36s-12-4.45,1.58-29.3"/><path class="cls-8" d="M209.09,123.61l-15,22s-2,6,4.89,10.7,24.63,13.89,24.63,13.89l-35.24,22-27-15.36s-12-4.45,1.58-29.3"/><path class="cls-6" d="M107.76,94l-.16,93.65a4.23,4.23,0,0,0,6.31,3.69l137.9-77.14a9.1,9.1,0,0,0,4.7-7.77L259,7.55a5.59,5.59,0,0,0-5.45-5.73,5.53,5.53,0,0,0-3,.79L113.19,84.45A11.12,11.12,0,0,0,107.76,94Z"/><polygon class="cls-9" points="114.74 91.74 114.74 170.49 250.18 96.3 253.18 10.13 114.74 91.74"/><ellipse class="cls-10" cx="225.61" cy="42.62" rx="6.26" ry="3.99" transform="translate(122.57 247.8) rotate(-74.03)"/><ellipse class="cls-10" cx="130.17" cy="92.77" rx="6.26" ry="3.99" transform="translate(5.17 192.39) rotate(-74.03)"/><ellipse class="cls-10" cx="230.15" cy="83.78" rx="6.26" ry="3.99" transform="translate(86.28 282) rotate(-74.03)"/><path class="cls-11" d="M244.12,90.87l-4.45-3.31a.91.91,0,0,0-.42-.71q-6.39-4.44-12.75-8.93a1,1,0,0,0-1.42.18.89.89,0,0,0-.18.38c-.45.77.12,1.57.84,2.17s1.61,1.33,2.43,2a1,1,0,0,0-.27.28c-.65,1-1.73,2.46-1.74,3.73s1,1.9,1.8,2.59v.18c-.16,1.56.53,2,1.77,2.77a1,1,0,0,0,.82.14,17.59,17.59,0,0,0,2.71,1.44L237,95.72c.95.49,1.64-.66,1.25-1.43.76.06,1.07-.76.88-1.4a.89.89,0,0,0,.21-.33V92.5l1.3,1c1,.82,2.29-.81,1.25-1.63l-.93-.74,1.9,1.43a1.06,1.06,0,0,0,1.47-.24A1,1,0,0,0,244.12,90.87Z"/><path class="cls-12" d="M273.64,221.39l1.6-1V202.32l-7.93-.29s-.15,7.71-2,9.46-6.5.5-7,.65-3.57-.75-5,.69,4.75,5.61,8,6.37a21.25,21.25,0,0,0,6.8.25s.71-4.62,1.84-4.16,1.22,5.34,1.22,5.34Z"/><path class="cls-13" d="M279.61,125.8a128.47,128.47,0,0,1,2,18.76c.14,7.11-2.37,63.89-2.37,63.89S274.49,214,263,210.64c-1.66-.48-2.19-55.41-2.19-55.41L264.75,130"/><path class="cls-12" d="M274.33,97.11c-.63,0-21.73-.55-36-13.32,0,0-6.84,6.69-4.06,11.82,0,0,20.21,19.48,35.63,15.49"/><path class="cls-14" d="M257.61,91.09a.32.32,0,0,0-.43-.09l-.1.09a14,14,0,0,0-2,10.45c.08.38.67.22.6-.16a13.29,13.29,0,0,1,1.7-9.52,22.1,22.1,0,0,1,2.6,10.56.31.31,0,1,0,.61,0A22.6,22.6,0,0,0,257.61,91.09Z"/><path class="cls-12" d="M251.92,235.31l1.6-1V216.24l-7.93-.28s-.15,7.7-2,9.46-6.5.5-7,.65-3.57-.75-5,.69,4.75,5.6,8,6.36a21.25,21.25,0,0,0,6.8.26s.71-4.62,1.84-4.17,1.22,5.34,1.22,5.34Z"/><path class="cls-13" d="M254.77,128.43s-7.31,27-10.28,51.12c-.71,5.8-6.71,40.37-6.71,40.37s9.88,3.61,18.67.78c0,0,10.46-44.11,10.9-45s7.51-29.43,8.32-49.93"/><path class="cls-12" d="M277.11,94.1,273,92.52c-1.07.08-10.56,3.18-14.87,9.46a41.63,41.63,0,0,0-1.38,6c-.55,2.71-1,5.43-1.36,8.12a58.85,58.85,0,0,0-.51,9,26.35,26.35,0,0,0,.2,3.21,5.68,5.68,0,0,0,1.61,1.14c12.46,5.36,22.33-1.15,22.82-2.15s2.15-15.7,3.05-24.45A8.46,8.46,0,0,0,277.11,94.1Z"/><path class="cls-11" d="M266.89,78.09S263,92.3,268.18,94.26s11.9-3.65,12.61-6.56S274.73,73.82,266.89,78.09Z"/><path class="cls-15" d="M292.64,73.84a6.62,6.62,0,0,0-7.88-3.53c-2.87.93-4.61,3.4-5.45,6.15-2.59-2.27-6.44-3.41-11.34-1.91,0,0-4.8,2-3.92,5.07s4.51,3,7.57,3.65.58,3.28.73,6.29,1.51,3.51,2.78,3.78,7-1,7.85-7.79c0-.41.06-.83.06-1.25a14.57,14.57,0,0,0,2.38.07A8.85,8.85,0,0,0,290.5,83,7.69,7.69,0,0,0,292.64,73.84Z"/><path class="cls-11" d="M261.91,93.65a2.71,2.71,0,0,0,.48-1.93,1,1,0,0,0-1.85-.42l-.44.61c-.07-.79-.15-1.57-.27-2.35a1,1,0,0,0-2,.07c0,.25-.06.5-.08.74a4.38,4.38,0,0,0-.17.8c-1.11.15-2.43.55-2.62,1.82v.08c-.85,0-1.68.34-1.71,1.35a2.81,2.81,0,0,0,0,.58c-.87.26-1.5.69-1.37,1.82a16.32,16.32,0,0,0,1,3.82,1,1,0,0,0,.77.58c.12.55.27,1.09.42,1.63a1.52,1.52,0,0,0,2,.7,1.54,1.54,0,0,0,.53-.42,1.59,1.59,0,0,0,.3-.06,1,1,0,0,0,.84.14,1,1,0,0,0,1.42-.24.88.88,0,0,0,.12-.21,1,1,0,0,0,.33-.86v-.69h0Q260.81,97.46,261.91,93.65Z"/><path class="cls-12" d="M260.17,98.93c-.33.08-4.89-4.11-8.36-2.67,0,0-13.19,22.25-.88,28.14,6.09,2.92,10.83-6.09,10.83-6.09l-3.5-6.93Z"/><path class="cls-11" d="M259.08,99.83a44.59,44.59,0,0,0-5.86,15.39c-.12.64.86.91,1,.27A43.64,43.64,0,0,1,260,100.35.53.53,0,0,0,259.08,99.83Z"/><path class="cls-11" d="M261.53,119.16c-1,2-2.32,4.06-4.35,5.07a6.64,6.64,0,0,1-7.33-1.13c-4.33-3.73-3.68-10.15-2.82-15.16.12-.64-.86-.91-1-.27-1,5.62-1.53,12.93,3.78,16.7a7.62,7.62,0,0,0,7.19,1c2.54-1,4.15-3.43,5.37-5.78C262.71,119.1,261.81,118.58,261.53,119.16Z"/><path class="cls-16" d="M272.59,145.63c-.65,12.9-4.45,25.26-7.68,37.69s-6,24.79-8.33,37.33l1.09-.31q3.58-19,8.47-37.7c3.19-12.18,6.83-24.36,7.47-37C273.64,145,272.62,145,272.59,145.63Z"/><polyline class="cls-17" points="336.22 174.88 282.34 200.69 291.76 230.17 360.44 181.98"/><path class="cls-6" d="M342.56,141a37.53,37.53,0,0,0-7.83,25.77c1,15.06,9.52,19.44,9.52,19.44l10.09.56s12-3.92,10.43-23.51c-1.47-18.39-7.45-22.72-7.45-22.72"/><ellipse class="cls-18" cx="350" cy="140.96" rx="7.43" ry="2.63"/><ellipse class="cls-6" cx="350" cy="184.6" rx="7.43" ry="2.63"/><path class="cls-19" d="M346.94,141.75l-9-51.6c-.2-1.13-1.91-.65-1.72.47l9,51.6C345.43,143.39,347.13,142.88,346.94,141.75Z"/><path class="cls-19" d="M348.57,141.92a2.37,2.37,0,0,1,.84,0,1.92,1.92,0,0,1,.91.56q1.08-21.61.39-43.27a.89.89,0,0,0-1.78,0Q349.62,120.59,348.57,141.92Z"/><path class="cls-19" d="M368.79,91.85a475.06,475.06,0,0,0-17.37,49.59.89.89,0,1,0,1.71.46,475.76,475.76,0,0,1,17.38-49.58C371,91.28,369.23,90.81,368.79,91.85Z"/><path class="cls-19" d="M339.87,111.43s-1-.12-5.22-4.58S335.77,99,333.31,94s1-11.63,1.79-16.65a23.34,23.34,0,0,0,3.72,9.84c3.2,4.57,5,8.71,4.65,14.52a51.08,51.08,0,0,1-1.89,10.84"/><path class="cls-19" d="M349,119.39s-.91-.35-4-5.71,3-7.32,1.82-12.79,3.8-11,5.77-15.71a23.3,23.3,0,0,0,1.23,10.44c2,5.22,2.72,9.66,1,15.23a51.29,51.29,0,0,1-4.46,10.05"/><path class="cls-19" d="M361.65,110.1s-.82-.52-2.69-6.4,4.41-6.55,4.4-12.18,6-10,8.87-14.21a23.39,23.39,0,0,0-.93,10.47c.88,5.53.68,10-2.15,15.1a51.36,51.36,0,0,1-6.43,8.93"/></g></g></svg>