<svg xmlns="http://www.w3.org/2000/svg" xmlns:xlink="http://www.w3.org/1999/xlink" viewBox="0 0 176.81 94.04" height="400" width="400"><defs><style>.cls-1{fill:#247efd;}.cls-2{fill:#003b94;}.cls-3{fill:#d9616f;}.cls-4{opacity:0.32;isolation:isolate;fill:url(#linear-gradient);}.cls-5{fill:none;stroke:#fff;stroke-linecap:round;stroke-miterlimit:10;stroke-width:2px;}</style><linearGradient id="linear-gradient" x1="60.52" y1="42.34" x2="96.52" y2="42.34" gradientUnits="userSpaceOnUse"><stop offset="0.04"/><stop offset="0.05" stop-color="#0e0104" stop-opacity="0.98"/><stop offset="0.06" stop-color="#380311" stop-opacity="0.92"/><stop offset="0.07" stop-color="#5c051d" stop-opacity="0.87"/><stop offset="0.08" stop-color="#790626" stop-opacity="0.83"/><stop offset="0.1" stop-color="#8f082d" stop-opacity="0.8"/><stop offset="0.12" stop-color="#9f0831" stop-opacity="0.77"/><stop offset="0.14" stop-color="#a80934" stop-opacity="0.76"/><stop offset="0.22" stop-color="#aa0935" stop-opacity="0.76"/><stop offset="0.26" stop-color="#aa1629" stop-opacity="0.61"/><stop offset="0.31" stop-color="#aa241c" stop-opacity="0.45"/><stop offset="0.37" stop-color="#aa2f12" stop-opacity="0.32"/><stop offset="0.44" stop-color="#aa380a" stop-opacity="0.22"/><stop offset="0.53" stop-color="#aa3e04" stop-opacity="0.15"/><stop offset="0.66" stop-color="#aa4101" stop-opacity="0.11"/><stop offset="1" stop-color="#aa4200" stop-opacity="0.1"/></linearGradient></defs><title>Asset 6</title><g id="Layer_2" data-name="Layer 2"><g id="Layer_1-2" data-name="Layer 1"><path class="cls-1" d="M35,66c-.86,2.24-1.86,4.58-3,7q-1,2.08-2,4l-3.43-1.37C26.4,74.07,26.2,72.54,26,71c-.35-3-.69-6-1-9l-9-1q.45,3.95,1,8c1.13,8.33,2.48,16.33,4,24a21.15,21.15,0,0,0,5,1,21.4,21.4,0,0,0,3,0c-.69-4.76-1.33-9.6-1.95-14.48L32,82a24.77,24.77,0,0,0,5-6,24.5,24.5,0,0,0,3-8Z"/><path class="cls-2" d="M33,72l5,2c.67-2,1.33-4,2-6l-5-1C34.35,68.65,33.69,70.32,33,72Z"/><path class="cls-2" d="M18,71l7-1V65l-8-3a23.09,23.09,0,0,0,1,9Z"/><path class="cls-1" d="M68,4,3,41A15.88,15.88,0,0,0,0,51a15.72,15.72,0,0,0,3,8.43L79,84Q73.51,44,68,4Z"/><path class="cls-3" d="M101.52,46.66c0,22-9.43,39-21.71,38C66.74,83.53,55.52,62.63,55.52,38S66.74-3.26,79.81.54C92.09,4.1,101.52,24.67,101.52,46.66Z"/><path class="cls-4" d="M80.87,79.69l-.64,0C70.93,78.87,60.52,60.9,60.52,38c0-20.4,8.1-33,15.6-33a8,8,0,0,1,2.29.34c8.75,2.54,18.11,19.75,18.11,41.32C96.52,66.42,88.43,79.69,80.87,79.69Z"/><path class="cls-2" d="M1,48l57,9a40.23,40.23,0,0,0,9,19,39,39,0,0,0,8,7L3,59a12.53,12.53,0,0,1-2-4A12.78,12.78,0,0,1,1,48Z"/><path class="cls-5" d="M115.52,16.49a29.58,29.58,0,0,1,1,54"/><path class="cls-5" d="M135,12.49a34.92,34.92,0,0,1,21,32.66,34.86,34.86,0,0,1-19.83,30.34"/><path class="cls-5" d="M153.23,8.49c14,6.55,23,21.38,22.57,37.33a40,40,0,0,1-21.31,34.67"/></g></g></svg>