<svg xmlns="http://www.w3.org/2000/svg" viewBox="0 0 215 215" height="200" width="200"><defs><style>.cls-1{isolation:isolate;}.cls-2,.cls-3{fill:#62c4e7;}.cls-3{mix-blend-mode:overlay;}.cls-4{fill:#666;}.cls-5{fill:#fff;}.cls-6{fill:#b6b6b8;}.cls-7{fill:#c2c2c4;}.cls-8{fill:#ecf0f1;}.cls-9{fill:#919191;}.cls-10{fill:#20d0c2;}.cls-11{fill:#ff5b62;}.cls-12{fill:#fad24d;}.cls-13{fill:#dce3db;}</style></defs><title>Asset 2</title><g class="cls-1"><g id="Layer_2" data-name="Layer 2"><g id="Layer_1-2" data-name="Layer 1"><circle class="cls-2" cx="107.5" cy="107.5" r="107.5"/><ellipse class="cls-3" cx="107.5" cy="177.06" rx="76.55" ry="6.03"/><path class="cls-4" d="M27.71,28.23H187.29a9.56,9.56,0,0,1,9.54,9.53v98.31H18.18V37.76a9.55,9.55,0,0,1,9.53-9.53Z"/><path class="cls-5" d="M24.65,129.6h165.7V37.76a3.09,3.09,0,0,0-3.06-3.06H27.71a3.09,3.09,0,0,0-3.06,3.06V129.6Z"/><path class="cls-5" d="M196.82,136.07v10.42c0,5.25-4.72,9.54-10.5,9.54H28.68c-5.78,0-10.5-4.29-10.5-9.54V136.07H196.82Z"/><circle class="cls-6" cx="107.5" cy="145.63" r="3.28"/><path class="cls-7" d="M128.1,171l15.16,4.86H71.74L84,171V156H128.1v15Z"/><path class="cls-8" d="M84,171H128.1l15.16,4.86V178H71.74v-2.09Z"/><path class="cls-9" d="M84,156H128.1v15Z"/><rect class="cls-10" x="31.85" y="40.94" width="17.11" height="2.95"/><rect class="cls-11" x="50.94" y="40.94" width="30.35" height="2.95"/><rect class="cls-12" x="82.75" y="40.94" width="25.84" height="2.95"/><rect class="cls-12" x="49.82" y="53.06" width="9.08" height="2.95"/><rect class="cls-11" x="59.95" y="53.06" width="16.1" height="2.95"/><rect class="cls-10" x="76.83" y="53.06" width="13.71" height="2.95"/><rect class="cls-10" x="31.74" y="58.24" width="15.95" height="2.95"/><rect class="cls-12" x="49.53" y="58.24" width="28.28" height="2.95"/><rect class="cls-11" x="48.77" y="64.42" width="15.95" height="2.95"/><rect class="cls-10" x="66.55" y="64.42" width="28.28" height="2.95"/><rect class="cls-12" x="34.58" y="70.34" width="15.95" height="2.95"/><rect class="cls-10" x="52.64" y="70.34" width="11.41" height="2.95"/><rect class="cls-11" x="66.74" y="70.34" width="32.04" height="2.95"/><rect class="cls-10" x="101.13" y="70.34" width="11.41" height="2.95"/><rect class="cls-10" x="31.18" y="76.52" width="42.67" height="2.95"/><rect class="cls-12" x="75.71" y="76.52" width="11.41" height="2.95"/><rect class="cls-11" x="88.75" y="76.52" width="15.95" height="2.95"/><rect class="cls-5" x="50.55" y="46.65" width="1.18" height="3.53"/><rect class="cls-5" x="81.13" y="58.24" width="1.18" height="3.53"/><rect class="cls-10" x="31.85" y="85.24" width="17.11" height="2.95"/><rect class="cls-11" x="50.94" y="85.24" width="30.35" height="2.95"/><rect class="cls-12" x="82.75" y="85.24" width="25.84" height="2.95"/><rect class="cls-12" x="49.82" y="97.36" width="9.08" height="2.95"/><rect class="cls-11" x="59.95" y="97.36" width="16.1" height="2.95"/><rect class="cls-10" x="76.83" y="97.36" width="13.71" height="2.95"/><rect class="cls-10" x="31.74" y="102.54" width="15.95" height="2.95"/><rect class="cls-12" x="49.53" y="102.54" width="28.28" height="2.95"/><rect class="cls-5" x="50.55" y="90.95" width="1.18" height="3.53"/><rect class="cls-5" x="81.13" y="102.54" width="1.18" height="3.53"/><rect class="cls-13" x="121.87" y="40.94" width="61.88" height="14.27"/><path class="cls-13" d="M121.87,57.23h29.47V76.07H121.87Z"/><path class="cls-13" d="M154.28,57.23h29.47V76.07H154.28Z"/><path class="cls-13" d="M122,78.77h61.71v.91H122Zm0,8.62h40.54v.91H122Zm0-2.87h61.71v.91H122Zm0-2.88h61.71v.92H122Z"/><path class="cls-13" d="M121.8,90.54h18.39v18.24H121.8Zm43.63,0h18.39v18.24H165.43Zm-21.81,0H162v18.24H143.62Z"/><path class="cls-13" d="M122,111.32h61.71v.91H122Zm0,8.62h40.54v.91H122Zm0-2.88h61.71V118H122Zm0-2.87h61.71v.91H122Z"/></g></g></g></svg>