<svg xmlns="http://www.w3.org/2000/svg" viewBox="0 0 203 203" width="200" height="200"><defs><style>.cls-1{fill:#62c4e7;}.cls-2{fill:#e6e6e6;}.cls-3{fill:#1e2c33;}.cls-4{fill:#f5f5f5;}.cls-5{fill:#e16b5a;}.cls-6{fill:#242424;}.cls-7{fill:#263740;}.cls-8{fill:#ffd464;}</style></defs><title>Asset 3</title><g id="Layer_2" data-name="Layer 2"><g id="Layer_1-2" data-name="Layer 1"><circle class="cls-1" cx="101.5" cy="101.5" r="101.5"/><rect class="cls-2" x="84.05" y="134.8" width="34.89" height="14.27"/><path class="cls-3" d="M33.3,120.53V49.7c0-2,1.36-2.12,3.25-2.12H166.6c1.89,0,3.1.14,3.1,2.12v70.83Z"/><path class="cls-4" d="M33.3,120.53V132c0,1.89,1.36,4.36,3.25,4.36H166.6c1.89,0,3.1-2.47,3.1-4.36v-11.5Z"/><rect class="cls-5" x="39.65" y="53.92" width="123.7" height="60.27"/><path class="cls-4" d="M130.05,152.25a3.17,3.17,0,0,0-3.17-3.17H76.13A3.17,3.17,0,0,0,73,152.25h0a3.17,3.17,0,0,0,3.18,3.17h50.75a3.17,3.17,0,0,0,3.17-3.17Z"/><circle class="cls-3" cx="101.58" cy="126.88" r="3.17"/><rect class="cls-4" x="44.41" y="55.51" width="6.34" height="53.92"/><polygon class="cls-6" points="47.54 60.72 48.27 60.58 46.13 58.86 46.81 61.52 47.25 60.91 47.82 61.81 48.11 61.62 47.55 60.74 47.54 60.72"/><path class="cls-6" d="M49.08,65.38h-.23V65.2a.16.16,0,0,0-.17-.17h-2.2a.18.18,0,0,0-.18.17v.18h-.13a.09.09,0,0,0-.09.09.09.09,0,0,0,.09.08h.13v.18a.18.18,0,0,0,.18.18h2.2a.17.17,0,0,0,.17-.18v-.18H49v.59l-1.56.25a.09.09,0,0,0-.07.09v.31h0a.17.17,0,0,0-.17.17V68a.18.18,0,0,0,.17.18h.27a.18.18,0,0,0,.17-.18V67a.17.17,0,0,0-.17-.17h0v-.23l1.56-.26a.08.08,0,0,0,.07-.08v-.75A.09.09,0,0,0,49.08,65.38Z"/><path class="cls-6" d="M47.18,72.19l.07,0a.81.81,0,0,0,.26-.11,2,2,0,0,0,.39-.32,3.32,3.32,0,0,0,.86-1.41,3.63,3.63,0,0,0-1.4.86,1.94,1.94,0,0,0-.32.4,1.33,1.33,0,0,0-.12.24s0,.06,0,.08c-.61,0-.34.67-.68.87.23,0,.63,0,.79-.16A.48.48,0,0,0,47.18,72.19Z"/><path class="cls-7" d="M131.58,93.44c2-.27,4.07-1.83,5.95-3.71,4.3-4.3,7.48-11.18,7.09-11.57s-7.14,2.65-11.56,7.08c-1.87,1.87-3.43,4-3.72,6Z"/><path class="cls-2" d="M131,87.62a7.5,7.5,0,0,0-1.66,3.57l2.24,2.25a7.18,7.18,0,0,0,3.58-1.66Z"/><path class="cls-8" d="M131.58,93.44l-2.24-2.25c-5,.19-2.83,5.46-5.64,7.14,1.94,0,5.25,0,6.56-1.33A4.14,4.14,0,0,0,131.58,93.44Z"/><path class="cls-7" d="M63.44,68.2a19.33,19.33,0,0,1,9-1,23.55,23.55,0,0,1,8.76,3.13C86.66,73.5,90.92,78,95,82.37c2,2.23,4,4.45,6,6.58a54.82,54.82,0,0,0,6.4,5.92,20.26,20.26,0,0,0,7.59,3.8,17.19,17.19,0,0,0,8.67-.34,15.56,15.56,0,0,1-8.92,1.88A20.09,20.09,0,0,1,106,96.9c-5.25-3.41-9.29-8-13.36-12.38s-8-8.78-12.73-12.09a24.89,24.89,0,0,0-7.74-3.7A22.73,22.73,0,0,0,63.44,68.2Z"/></g></g></svg>